<?xml version="1.0" encoding="UTF-8"?>
<svg id="Camada_2" data-name="Camada 2" xmlns="http://www.w3.org/2000/svg" viewBox="0 0 679.94 1140">
  <defs>
    <style>
      .cls-1 {
        letter-spacing: 0em;
      }

      .cls-2 {
        letter-spacing: 0em;
      }

      .cls-3 {
        font-family: MyriadPro-Regular, 'Myriad Pro';
        font-size: 77px;
      }

      .cls-4 {
        letter-spacing: 0em;
      }

      .cls-5 {
        letter-spacing: 0em;
      }
    </style>
  </defs>
  <g id="Camada_1-2" data-name="Camada 1">
    <g>
      <path d="m384.94,0H89.94s0,7,0,7v7s295,0,295,0h295s0-7,0-7V0s-295,0-295,0Z"/>
      <path d="m384.94,24H89.94s0,3,0,3v3s295,0,295,0h295s0-3,0-3v-3s-295,0-295,0Z"/>
      <path d="m384.94,47H89.94s0,3,0,3v3s295,0,295,0h295s0-3,0-3v-3s-295,0-295,0Z"/>
      <path d="m384.94,87H89.94s0,14.5,0,14.5v14.5s295,0,295,0h295s0-14.5,0-14.5v-14.5s-295,0-295,0Z"/>
      <path d="m384.94,126H89.94s0,3,0,3v3s295,0,295,0h295s0-3,0-3v-3s-295,0-295,0Z"/>
      <path d="m384.94,142H89.94s0,11,0,11v11s295,0,295,0h295s0-11,0-11v-11s-295,0-295,0Z"/>
      <path d="m384.94,174H89.94s0,10.5,0,10.5v10.5s295,0,295,0h295s0-10.5,0-10.5v-10.5s-295,0-295,0Z"/>
      <path d="m384.94,205H89.94s0,3,0,3v3s295,0,295,0h295s0-3,0-3v-3s-295,0-295,0Z"/>
      <path d="m384.94,236H89.94s0,7,0,7v7s295,0,295,0h295s0-7,0-7v-7s-295,0-295,0Z"/>
      <path d="m384.94,260H89.94s0,3,0,3v3s295,0,295,0h295s0-3,0-3v-3s-295,0-295,0Z"/>
      <path d="m384.94,299H89.94s0,7,0,7v7s295,0,295,0h295s0-7,0-7v-7s-295,0-295,0Z"/>
      <path d="m384.94,323H89.94s0,3,0,3v3s295,0,295,0h295s0-3,0-3v-3s-295,0-295,0Z"/>
      <path d="m384.94,347H89.94s0,6.5,0,6.5v6.5s295,0,295,0h295s0-6.5,0-6.5v-6.5s-295,0-295,0Z"/>
      <path d="m384.94,394H89.94s0,3,0,3v3s295,0,295,0h295s0-3,0-3v-3s-295,0-295,0Z"/>
      <path d="m384.94,418H89.94s0,3,0,3v3s295,0,295,0h295s0-3,0-3v-3s-295,0-295,0Z"/>
      <path d="m384.94,434H89.94s0,2.5,0,2.5v2.5s295,0,295,0h295s0-2.5,0-2.5v-2.5s-295,0-295,0Z"/>
      <path d="m384.94,473H89.94s0,7,0,7v7s295,0,295,0h295s0-7,0-7v-7s-295,0-295,0Z"/>
      <path d="m384.94,496H89.94s0,3,0,3v3s295,0,295,0h295s0-3,0-3v-3s-295,0-295,0Z"/>
      <path d="m384.94,520H89.94s0,3,0,3v3s295,0,295,0h295s0-3,0-3v-3s-295,0-295,0Z"/>
      <path d="m384.94,536H89.94s0,3,0,3v3s295,0,295,0h295s0-3,0-3v-3s-295,0-295,0Z"/>
      <path d="m384.94,559H89.94s0,15,0,15v15s295,0,295,0h295s0-15,0-15v-15s-295,0-295,0Z"/>
      <path d="m384.94,607H89.94s0,3,0,3v3s295,0,295,0h295s0-3,0-3v-3s-295,0-295,0Z"/>
      <path d="m384.94,623H89.94s0,6.5,0,6.5v6.5s295,0,295,0h295s0-6.5,0-6.5v-6.5s-295,0-295,0Z"/>
      <path d="m384.94,654H89.94s0,3,0,3v3s295,0,295,0h295s0-3,0-3v-3s-295,0-295,0Z"/>
      <path d="m384.94,693H89.94s0,3,0,3v3s295,0,295,0h295s0-3,0-3v-3s-295,0-295,0Z"/>
      <path d="m384.94,732H89.94s0,3,0,3v3s295,0,295,0h295s0-3,0-3v-3s-295,0-295,0Z"/>
      <path d="m384.94,756H89.94s0,7,0,7v7s295,0,295,0h295s0-7,0-7v-7s-295,0-295,0Z"/>
      <path d="m384.94,780H89.94s0,3,0,3v3s295,0,295,0h295s0-3,0-3v-3s-295,0-295,0Z"/>
      <path d="m384.94,819H89.94s0,7,0,7v7s295,0,295,0h295s0-7,0-7v-7s-295,0-295,0Z"/>
      <path d="m384.94,843H89.94s0,3,0,3v3s295,0,295,0h295s0-3,0-3v-3s-295,0-295,0Z"/>
      <path d="m384.94,866.5H89.94s0,2.8,0,2.8v2.7s295,0,295,0h295s0-2.7,0-2.7v-2.8s-295,0-295,0Z"/>
      <path d="m384.94,890H89.94s0,3,0,3v3s295,0,295,0h295s0-3,0-3v-3s-295,0-295,0Z"/>
      <path d="m384.94,906H89.94s0,7,0,7v7s295,0,295,0h295s0-7,0-7v-7s-295,0-295,0Z"/>
      <path d="m384.94,953H89.94s0,3,0,3v3s295,0,295,0h295s0-3,0-3v-3s-295,0-295,0Z"/>
      <path d="m384.94,969H89.94s0,14.5,0,14.5v14.5s295,0,295,0h295s0-14.5,0-14.5v-14.5s-295,0-295,0Z"/>
      <path d="m384.94,1008H89.94s0,11,0,11v11s295,0,295,0h295s0-11,0-11v-11s-295,0-295,0Z"/>
      <path d="m384.94,1040H89.94s0,7,0,7v7s295,0,295,0h295s0-7,0-7v-7s-295,0-295,0Z"/>
      <path d="m384.94,1079H89.94s0,11,0,11v11s295,0,295,0h295s0-11,0-11v-11s-295,0-295,0Z"/>
      <path d="m384.94,1110H89.94s0,3,0,3v3s295,0,295,0h295s0-3,0-3v-3s-295,0-295,0Z"/>
      <path d="m384.94,1126H89.94s0,7,0,7v7s295,0,295,0h295s0-7,0-7v-7s-295,0-295,0Z"/>
    </g>
    <text class="cls-3" transform="translate(64.45 840.92) rotate(-90)"><tspan class="cls-5" x="0" y="0">I</tspan><tspan class="cls-4" x="19.09" y="0">v</tspan><tspan class="cls-1" x="55.82" y="0">ana </tspan><tspan class="cls-2" x="189.11" y="0">B</tspan><tspan x="231.15" y="0">eaumond</tspan></text>
  </g>
</svg>