<?xml version="1.0" encoding="UTF-8"?>
<svg id="Camada_2" data-name="Camada 2" xmlns="http://www.w3.org/2000/svg" viewBox="0 0 212.5 37">
  <g id="Camada_1-2" data-name="Camada 1">
    <g>
      <path d="m5.9,21.8H.2q-.1,0-.1-.1t.1-.1c1.3-.5,2-1.5,2-2.9V2.3c0-.6-.2-1.1-.6-1.3C1.2.7.7.6.1.5c-.1,0-.1-.1-.1-.1q0-.1.1-.1c1.1.1,2.3.2,3.5.2h1.6c.5,0,1.1-.1,1.6-.2q.1,0,.1.1,0,.1-.1.1c-.3.1-.6.1-.8.2-.2.1-.5.2-.6.3-.2.1-.3.3-.4.5s-.1.5-.1.8v16.4c0,1,.2,1.7.6,2.2.4.4,1.1.7,2,.8v.2c-.6-.1-1.1-.1-1.6-.1Z"/>
      <path d="m24.5,4.1c-.2,0-.4.1-.6.1-.2.1-.3.2-.5.3-.1.1-.3.5-.6,1.1s-.6,1.4-1,2.3-.8,2-1.3,3.1-.9,2.2-1.4,3.3c-.3.6-.5,1.3-.8,1.9s-.5,1.1-.7,1.6-.4.9-.6,1.3c-.2.4-.3.7-.4.9,0,0,0,.1-.1.1,0,0-.1,0-.1-.1-.7-1.2-1.3-2.5-1.8-3.8s-1-2.6-1.4-3.9c-.5-1.3-.9-2.7-1.4-3.9-.5-1.3-1.1-2.4-1.7-3.5-.2-.3-.3-.4-.5-.5s-.4-.1-.6-.2c-.2-.1-.4-.1-.5-.1-.2,0-.3-.1-.5-.2-.1,0-.1-.1-.1-.1l.1-.1h1.9c.6,0,1.2.1,1.8.1h1.8q.1,0,.1.1t-.1.1h-.3c-.1,0-.2.1-.4.1-.1,0-.2.1-.3.2s-.1.1-.1.2c0,.3.1.8.3,1.5s.5,1.5.8,2.4.7,1.9,1.1,2.8c.4,1,.8,1.9,1.1,2.8.3.6.5,1.1.7,1.6.2.4.3.8.4,1.1.2-.5.5-1.2.9-2s.8-1.7,1.2-2.7.8-1.9,1.2-2.9c.4-.9.7-1.8.9-2.6.2-.8.4-1.4.4-1.9,0-.1,0-.2-.1-.2-.1-.1-.2-.1-.4-.2-.1,0-.3-.1-.4-.1s-.2-.1-.3-.1v-.1q0-.1.1-.1h.6c.5.1,1.1.1,1.7.1s1.2,0,1.8-.1h.6v.2c-.3,0-.5,0-.5.1Z"/>
      <path d="m36,19.7c-.2,0-.5,0-.8-.1h-1c-.5,0-.9,0-1.3.1-.4,0-.9.1-1.3.1q-.1,0-.1-.1t.1-.1l1.1-.6c-.3-.9-.7-1.8-1-2.7-.4-.9-.7-1.8-1-2.7h-4.5c-.1.3-.2.6-.4,1.1s-.4,1-.5,1.6c-.2.5-.3,1-.5,1.5-.1.5-.2.8-.2,1,0,.3.1.5.4.6.3.1.5.2.7.2v.2c-.4,0-.8-.1-1.1-.1h-2.4c-.4,0-.8.1-1.2.1q-.1,0-.1-.1,0-.1.1-.1c1.1-.1,1.8-.7,2.3-1.7h0c.6-1.4,1.1-2.9,1.6-4.3s1-2.9,1.6-4.3c.4-1,.7-1.9,1-2.9s.7-1.9,1.1-2.9c0-.1.1-.1.1-.1q.1,0,.1.1c.1.3.2.5.3.8s.2.5.3.8c.8,2.2,1.6,4.4,2.5,6.6s1.9,4.4,3,6.5c.2.4.5.8.9,1s.8.3,1.2.4v.2c-.5-.1-.7-.1-1-.1Zm-7.7-13.3c-.3,1-.6,2-1,3-.3,1-.6,2-1,3.1h3.8l-1.8-6.1Z"/>
      <path d="m55.2,4c0-.1,0,0,0,0-.3.1-.6.2-.9.3-.3.1-.5.3-.5.6v8.2c0,1.1,0,2.3-.1,3.4,0,1.1-.1,2.2-.2,3.3,0,0,0,.1-.1.1h-.1c-.9-.8-1.9-1.7-2.8-2.6l-2.8-2.8c-.9-.9-1.8-1.9-2.7-2.9-.9-1-1.7-1.9-2.5-2.9-.3-.3-.5-.6-.7-.8-.2-.3-.5-.5-.7-.8-.1.5-.1,1-.1,1.5v2.2c0,.7,0,1.5.1,2.2,0,.7.1,1.5.1,2.2v2.3c0,.3,0,.6.1.8.1.2.1.4.2.5.1.1.2.2.3.2s.3.1.4.1c.2,0,.3.1.5.1s.3.2.6.3c0,0,.1.1,0,.1,0,0,0,.1-.1.1-.2,0-.4,0-.6-.1-.2,0-.4,0-.6-.1-.3,0-.6-.1-.8-.1h-.8c-.4,0-.7,0-1.1.1-.4,0-.7.1-1.1.2q-.1,0-.1-.1v-.1c.2-.1.3-.2.4-.3.1-.1.2-.1.4-.2s.4-.3.6-.5c.2-.2.3-.5.3-1V3.8l.2-.5s0-.1.1-.1h.1c2.1,2.2,4.2,4.4,6.2,6.5s4,4.4,6.1,6.6v-5.5c0-.8,0-1.7-.1-2.7v-2.7c0-.3,0-.6-.1-.8-.1-.2-.2-.4-.3-.5-.1-.1-.2-.2-.4-.2-.1,0-.3-.1-.4-.1-.2,0-.3,0-.4-.1-.1,0-.2-.1-.3-.2v-.1c0-.1.1-.1.1-.1.4.1.9.1,1.3.1h3.4l-.1.6c.1,0,0,0,0,0Z"/>
      <path d="m71.9,19.7c-.2,0-.5,0-.8-.1h-1c-.5,0-.9,0-1.3.1-.4,0-.9.1-1.3.1q-.1,0-.1-.1t.1-.1l1.1-.6c-.3-.9-.7-1.8-1-2.7-.4-.9-.7-1.8-1-2.7h-4.5c-.1.3-.2.6-.4,1.1-.2.5-.4,1-.5,1.6-.2.5-.3,1-.5,1.5-.1.5-.2.8-.2,1,0,.3.1.5.4.6s.5.2.7.2v.2c-.4,0-.8-.1-1.1-.1h-2.4c-.4,0-.8.1-1.2.1q-.1,0-.1-.1,0-.1.1-.1c1.1-.1,1.8-.7,2.3-1.7h0c.6-1.4,1.1-2.9,1.6-4.3s1-2.9,1.6-4.3c.4-1,.7-1.9,1-2.9s.7-1.9,1.1-2.9c0-.1.1-.1.1-.1q.1,0,.1.1c.1.3.2.5.3.8.1.3.2.5.3.8.8,2.2,1.6,4.4,2.5,6.6s1.9,4.4,3,6.5c.2.4.5.8.9,1s.8.3,1.2.4v.2c-.5-.1-.7-.1-1-.1Zm-7.7-13.3c-.3,1-.6,2-1,3-.3,1-.6,2-1,3.1h3.8l-1.8-6.1Z"/>
      <path d="m95.5,18.2c-.4.8-.9,1.5-1.5,2-.6.6-1.4,1-2.2,1.3-.8.3-1.7.5-2.6.5h-7.6q-.1,0-.1-.1t.1-.1c.4-.1.8-.3,1.1-.4.3-.1.5-.3.6-.5s.2-.5.2-.8.1-.7.1-1.2V2.2c0-.3,0-.6-.1-.8-.1-.2-.2-.3-.3-.4-.1-.1-.2-.2-.4-.2-.1,0-.3-.1-.5-.1s-.4,0-.6-.1c-.2,0-.4-.2-.5-.4v-.1h.1c.6.1,1.2.2,1.7.2.4,0,.9,0,1.3-.1.4,0,.8-.1,1.2-.1s.8-.1,1.2-.1h1.2c.7,0,1.4.1,2.1.3.7.2,1.4.5,2,.9s1.1.9,1.5,1.5.6,1.3.6,2.1c0,.5-.1,1-.2,1.4-.2.4-.4.9-.6,1.3-.3.4-.6.8-.9,1.2-.3.4-.7.7-1,1,.7.2,1.3.5,1.9.9s1.1.8,1.5,1.3.8,1.1,1,1.7.4,1.3.4,2.1c-.1.8-.3,1.7-.7,2.5Zm-2.3-3.5c-.2-.6-.4-1.1-.7-1.6-.3-.5-.7-.9-1.1-1.3s-.9-.7-1.5-1c-.5-.3-1.1-.4-1.7-.5-.6,0-1.2-.1-1.8-.1h-.2v8.3c0,.4.1.7.3,1,.2.3.5.5.8.7s.7.4,1,.5c.4.1.7.2,1,.2.6,0,1.2-.1,1.7-.4s.9-.6,1.3-1,.7-.9.9-1.5c.2-.5.3-1.1.3-1.7,0-.4-.1-1-.3-1.6Zm-1.9-11.3c-.2-.5-.4-1-.7-1.3-.3-.4-.7-.7-1.2-.9-.5-.2-1-.3-1.5-.3-.3,0-.5,0-.8.1s-.5.1-.8.2v8h.2c.8,0,1.5-.1,2.1-.2s1.2-.3,1.6-.6c.4-.3.8-.7,1-1.3.2-.5.4-1.2.4-2.1-.1-.5-.2-1-.3-1.6Z"/>
      <path d="m106.7,18.2c-.1.4-.1.9-.2,1.3q0,.1-.1.1h0c-.2.1-.3.1-.4.1h-8.2v-.2c.3,0,.5-.1.7-.2s.3-.3.4-.5.2-.4.2-.7V5.2c0-.4-.1-.6-.3-.8-.2-.1-.4-.2-.6-.3-.1,0-.2-.1-.4-.1-.1,0-.3-.1-.5-.2,0,0-.1-.1,0-.1,0,0,0-.1.1-.1h8.4c.1,0,.2-.1.2-.1.1,0,.2-.1.2-.1q.1,0,.1.1c-.1.5-.1,1-.2,1.4s-.2.9-.3,1.3c0,.1-.1.1-.1.1q-.1,0-.1-.1c0-.7-.3-1.1-.7-1.3-.4-.2-1-.3-1.6-.3h-2.3v6h3.4c.1,0,.2,0,.4-.1.2-.1.3-.1.5-.2s.4-.2.6-.3q.1,0,.1.1c0,.2,0,.5-.1.8,0,.3-.1.5-.1.8,0,.2-.1.5-.1.7,0,.3,0,.5-.1.7q0,.1-.1.1h-.1c-.1-.1-.2-.2-.2-.3s-.1-.2-.1-.3-.1-.2-.1-.4c0-.1-.1-.2-.2-.3-.1-.1-.3-.2-.5-.2-.3,0-.5-.1-.9-.1h-2.5v6c.3.4.7.8,1.2,1s1.1.3,1.6.3c.7,0,1.3-.2,1.7-.5.5-.4.8-.9,1-1.5l.2.1c.2.4.1.8.1,1.2Z"/>
      <path d="m123.5,19.7c-.2,0-.5,0-.8-.1h-1c-.5,0-.9,0-1.3.1-.5,0-.9.1-1.3.1q-.1,0-.1-.1t.1-.1l1.1-.6c-.3-.9-.7-1.8-1-2.7-.4-.9-.7-1.8-1-2.7h-4.5c-.1.3-.2.6-.4,1.1s-.4,1-.5,1.6c-.2.5-.3,1-.5,1.5-.1.5-.2.8-.2,1,0,.3.1.5.4.6.3.1.5.2.7.2v.2c-.4,0-.8-.1-1.1-.1h-2.4c-.4,0-.8.1-1.2.1q-.1,0-.1-.1,0-.1.1-.1c1.1-.1,1.8-.7,2.3-1.7h0c.6-1.4,1.1-2.9,1.6-4.3s1-2.9,1.6-4.3c.4-1,.7-1.9,1-2.9s.7-1.9,1.1-2.9c0-.1.1-.1.1-.1q.1,0,.1.1c.1.3.2.5.3.8s.2.5.3.8c.8,2.2,1.6,4.4,2.5,6.6s1.9,4.4,3,6.5c.2.4.5.8.9,1s.8.3,1.2.4v.2c-.5-.1-.7-.1-1-.1Zm-7.7-13.3c-.3,1-.7,2-1,3s-.6,2-1,3.1h3.8l-1.8-6.1Z"/>
      <path d="m137.5,4.6c-.3.3-.4.7-.4,1.1v7.9c0,.9-.1,1.7-.4,2.6-.3.8-.7,1.5-1.2,2.1s-1.2,1.1-1.9,1.4c-.8.3-1.6.5-2.5.5-.7,0-1.4-.1-2-.3-.7-.2-1.3-.5-1.8-1-.6-.4-1.1-.9-1.5-1.4s-.8-1.1-1-1.8c-.1-.1-.1-.3-.1-.6s0-.6-.1-1V5.8c0-.6-.2-1-.5-1.2s-.7-.4-1.2-.6c-.1,0-.1-.1-.1-.1q0-.1.1-.1c1.1.1,2.2.1,3.3.1h1.8q.1,0,.1.1t-.1.1c-.3.2-.6.4-1,.7-.3.3-.5.6-.5,1l-.1,9c0,.7.1,1.3.3,1.8s.5,1,1,1.4.9.7,1.5.9c.6.2,1.2.3,1.8.3.7,0,1.3-.1,1.8-.3.6-.2,1.1-.5,1.5-.9s.7-.9,1-1.4c.2-.5.3-1.2.3-1.8l-.1-8.9c0-.6-.1-1-.4-1.2-.3-.3-.7-.4-1.3-.5-.1,0-.1-.1-.1-.1q0-.1.1-.1c.5.1,1.1.1,1.6.1h3.1v.2c-.4-.2-.8,0-1,.3Z"/>
      <path d="m159.7,19.7h-2.4c-.8,0-1.6,0-2.3-.1-.1,0-.2,0-.1-.1v-.2c.1-.2.1-.4.2-.5.1-.2.1-.3.1-.5,0-1.1-.1-2.2-.2-3.3-.1-1.1-.2-2.2-.4-3.3-.1-.7-.2-1.3-.2-1.8-.1-.5-.1-1.1-.2-1.8-.7,1.4-1.5,2.9-2.1,4.3-.7,1.4-1.4,2.9-2.1,4.3-.2.5-.5,1-.7,1.5s-.5,1-.7,1.5c0,0,0,.1-.1.1,0,0-.1,0-.1-.1-.9-1.3-1.7-2.5-2.3-3.8-.7-1.3-1.3-2.6-1.9-3.9-.3-.7-.6-1.3-.8-1.9s-.5-1.2-.9-1.8c-.1.5-.1,1-.2,1.4-.1.5-.1.9-.2,1.4-.2,1.2-.3,2.4-.4,3.6-.1,1.2-.2,2.4-.2,3.6,0,.4.1.6.3.7l.6.3c.1,0,.2.1.3.1s.2.1.3.1.1.1.1.1c0,.1-.1.1-.1.1h-3.8c-.2,0-.4,0-.6.1q-.1,0-.1-.1t.1-.1c.2,0,.3-.1.4-.1.2,0,.4-.1.6-.1s.3-.2.4-.4c0-.1.1-.3.2-.8.1-.4.1-1,.2-1.7.1-.7.2-1.5.3-2.4s.2-1.8.3-2.7c.1-.9.2-1.8.3-2.7.1-.9.2-1.7.3-2.4.1-.6.1-1.2.2-1.7,0-.5.1-.9.1-1.1q0-.1.1-.1h.1c.2.3.6.8,1,1.5.4.8.9,1.6,1.4,2.6s1,2.1,1.6,3.2c.5,1.1,1,2.2,1.5,3.1.3.7.6,1.3.8,1.8s.4.9.6,1.2c.3-.6.6-1.3,1-2,.3-.7.6-1.5,1-2.2.7-1.6,1.4-3.2,2.2-4.8.8-1.6,1.6-3.1,2.4-4.3,0,0,.1-.1.1,0,0,0,.1,0,.1.1,0,.2.1.6.1,1s.1.9.1,1.5c.1.7.1,1.5.2,2.4.1.9.2,1.7.3,2.6s.2,1.8.3,2.6c.1.9.2,1.6.3,2.3s.2,1.3.3,1.8.2.8.3.9c.2.3.4.5.6.6.2.1.4.2.7.2.1,0,.3.1.4.1s.3.1.5.1h-.2Z"/>
      <path d="m175.9,15.3c-.5,1-1.1,1.8-1.8,2.5-.8.7-1.6,1.3-2.7,1.6-1,.4-2.1.6-3.2.6-.9,0-1.9-.2-2.9-.7-1-.4-1.9-1-2.7-1.8-.8-.7-1.5-1.5-2-2.5-.5-.9-.8-1.8-.8-2.8,0-1.4.1-2.7.4-3.7.3-1,.7-1.9,1.3-2.6s1.4-1.3,2.3-1.8c1-.5,2.1-.8,3.5-1.1h.4c1.3-.1,2.4.1,3.5.5,1.1.5,2,1.1,2.8,1.9s1.4,1.8,1.9,2.9.7,2.3.7,3.6c-.1,1.4-.3,2.5-.7,3.4Zm-1.7-6c-.3-1-.7-1.8-1.3-2.6-.6-.8-1.2-1.4-2.1-1.8-.8-.5-1.7-.7-2.8-.7-1,0-1.9.2-2.7.5-.8.4-1.4.9-1.9,1.5s-.9,1.4-1.2,2.2c-.3.8-.4,1.7-.4,2.7s.1,1.9.4,2.9c.3,1,.7,1.8,1.3,2.6.6.8,1.3,1.4,2.1,1.9s1.8.7,2.8.7,1.9-.2,2.6-.6c.8-.4,1.4-.9,1.9-1.5s.9-1.4,1.2-2.2c.3-.8.4-1.7.4-2.7.1-1-.1-2-.3-2.9Z"/>
      <path d="m195,4c0-.1-.1,0,0,0-.3.1-.6.2-.9.3-.3.1-.5.3-.5.6v8.2c0,1.1,0,2.3-.1,3.4,0,1.1-.1,2.2-.2,3.3,0,0,0,.1-.1.1h-.1c-.9-.8-1.9-1.7-2.8-2.6-.9-.9-1.9-1.9-2.8-2.8s-1.8-1.9-2.7-2.9-1.7-1.9-2.5-2.9c-.3-.3-.5-.6-.7-.8s-.5-.5-.7-.8c-.1.5-.1,1-.1,1.5v2.2c0,.7,0,1.5.1,2.2,0,.7.1,1.5.1,2.2v2.3c0,.3,0,.6.1.8.1.2.1.4.2.5.1.1.2.2.3.2s.3.1.4.1c.2,0,.3.1.5.1s.3.2.6.3c0,0,.1.1,0,.1,0,0,0,.1-.1.1-.2,0-.4,0-.6-.1-.2,0-.4,0-.6-.1-.3,0-.6-.1-.8-.1h-.8c-.4,0-.7,0-1.1.1-.4,0-.7.1-1.1.2q-.1,0-.1-.1v-.1c.2-.1.3-.2.4-.3.1-.1.2-.1.4-.2s.4-.3.6-.5c.2-.2.3-.5.3-1V3.8l.2-.5s0-.1.1-.1h.1c2.1,2.2,4.2,4.4,6.2,6.5s4,4.4,6.1,6.6v-5.5c0-.8,0-1.7-.1-2.7v-2.7c0-.3,0-.6-.1-.8-.1-.2-.2-.4-.3-.5s-.2-.2-.4-.2c-.1,0-.3-.1-.4-.1-.2,0-.3,0-.4-.1-.1,0-.2-.1-.3-.2v-.1c0-.1.1-.1.1-.1.4.1.9.1,1.3.1h3.4l-.1.6h0Z"/>
      <path d="m211.8,15.2c-.5,1.1-1.1,1.9-1.9,2.6-.8.7-1.8,1.2-2.9,1.6-1.1.3-2.4.5-3.8.5-.5,0-1,0-1.6-.1-.5,0-1.1-.1-1.6-.1-.6,0-1.1-.1-1.7-.1h-1.7q-.1,0-.1-.1t.1-.1c.6-.1,1-.4,1.2-.7.1-.3.2-.8.2-1.4V5.2c0-.4-.1-.7-.4-.9-.2-.1-.5-.2-.7-.2-.1,0-.3,0-.4-.1-.1,0-.2-.1-.3-.2s0-.2.1-.2h1.4c.3,0,.6,0,1,.1h2.2c.4,0,.8,0,1.2-.1.4,0,.8-.1,1.2-.1h1.2c1.1,0,2.2.2,3.2.6s1.8,1,2.5,1.7,1.3,1.6,1.7,2.5c.4,1,.6,2,.6,3.1,0,1.5-.3,2.8-.7,3.8Zm-1.9-6.1c-.4-1-1-1.8-1.7-2.4-.7-.7-1.5-1.2-2.5-1.6s-2.1-.5-3.2-.5c-.4,0-.8,0-1.2.1-.4,0-.8.1-1.1.3v11.6c0,.6.1,1,.2,1.3.1.3.3.6.6.8.3.2.6.3,1,.3s.8.1,1.4.1c1.1,0,2.1-.1,2.9-.4.9-.3,1.7-.7,2.3-1.3.6-.6,1.1-1.3,1.5-2.1.4-.8.5-1.8.5-2.9-.1-1.3-.3-2.4-.7-3.3Z"/>
    </g>
    <g>
      <rect x="25.5" y="32.4" width="55.4" height="1.2"/>
      <rect x="131.4" y="32.4" width="55.4" height="1.2"/>
    </g>
    <g>
      <path d="m86.8,36.8v-.5h.6c.1,0,.2-.1.3-.1.1-.1.2-.1.2-.3.1-.1.1-.3.1-.4v-5.8c0-.2,0-.3-.1-.4s-.1-.2-.2-.2c-.1-.1-.2-.1-.3-.1h-.6v-.5h3.3c.5,0,.9.1,1.3.2s.7.3.9.5.4.5.5.8.2.7.2,1c0,.4-.1.7-.2,1s-.3.6-.5.9c-.3.2-.6.4-1,.6-.4.1-.9.2-1.5.2h-.7v2c0,.2,0,.3.1.4s.1.2.2.2c.1.1.2.1.3.1h.8v.5h-3.7v-.1Zm2.3-3.9h.6c.4,0,.7,0,.9-.1s.5-.2.6-.4c.2-.2.3-.4.4-.6s.1-.6.1-1c0-.3,0-.6-.1-.9s-.2-.4-.3-.6c-.1-.2-.3-.3-.6-.4-.2-.1-.5-.1-.9-.1h-.8v4.1h.1Z"/>
      <path d="m96.9,33.9l-.5,1.2c0,.1-.1.2-.1.3v.2c0,.2.1.3.2.4s.3.1.6.1h.3v.5h-2.9v-.5h.5c.1,0,.2-.1.2-.1.1-.1.1-.2.2-.3s.1-.3.2-.5l2.6-7.1h.9l2.7,7.4c0,.1.1.2.1.3s.1.1.2.2c.1,0,.1.1.2.1h.5v.5h-3.2v-.5h.3c.5,0,.7-.2.7-.6v-.2q0-.1-.1-.2l-.5-1.3h-3.1v.1Zm2.2-2.7c-.1-.4-.2-.7-.3-1-.1-.3-.2-.6-.3-.9,0,.1-.1.3-.1.4s-.1.3-.1.4-.1.3-.1.4c-.1.2-.1.3-.2.5l-.8,2.2h2.7l-.8-2Z"/>
      <path d="m111,35.3c.2.3.4.6.6.7s.4.2.7.2h0v.5h-1.1c-.2,0-.4-.1-.6-.2-.2-.1-.3-.2-.4-.3s-.2-.3-.4-.5l-1.6-2.7h-1v2.4c0,.2,0,.3.1.4s.1.2.2.2c.1.1.2.1.3.1h.6v.5h-3.5v-.5h.6c.1,0,.2-.1.3-.1.1-.1.2-.1.2-.2.1-.1.1-.2.1-.4v-5.9c0-.2,0-.3-.1-.4s-.1-.2-.2-.2-.2-.1-.3-.1h-.6v-.5h3.2c1,0,1.8.2,2.3.6s.8,1,.8,1.7c0,.3-.1.6-.2.8s-.2.4-.4.6-.4.3-.6.4l-.6.3,1.6,2.6Zm-3.8-2.8h.8c.3,0,.6,0,.9-.1l.6-.3c.2-.1.2-.3.3-.6.1-.2.1-.5.1-.8s0-.6-.1-.8c-.1-.2-.2-.4-.3-.5s-.3-.2-.6-.3-.5-.1-.9-.1h-.8v3.5Z"/>
      <path d="m114.2,36.8v-.5h.6c.1,0,.2-.1.3-.1.1-.1.2-.1.2-.3.1-.1.1-.3.1-.4v-5.8c0-.2,0-.3-.1-.4s-.1-.2-.2-.3c-.1-.1-.2-.1-.3-.1h-.6v-.5h3.5v.5h-.6c-.1,0-.2.1-.3.1-.1.1-.2.1-.2.3s-.1.3-.1.4v5.8c0,.2,0,.3.1.4s.1.2.2.3c.1.1.2.1.3.1h.6v.5h-3.5Z"/>
      <path d="m122.6,36.9c-.4,0-.7,0-1-.1s-.5-.2-.7-.3-.3-.3-.4-.5c-.1-.2-.2-.4-.2-.7,0-.2.1-.4.2-.6.1-.1.4-.2.6-.2,0,.2,0,.5.1.7s.2.4.3.6.3.3.5.4.4.2.7.2c.5,0,1-.1,1.3-.4s.4-.6.4-1.1c0-.2,0-.4-.1-.6s-.2-.3-.3-.5c-.1-.1-.3-.3-.6-.4-.2-.1-.5-.3-.9-.4-.4-.2-.7-.3-1-.5s-.5-.4-.7-.6-.3-.4-.4-.7c-.1-.3-.1-.6-.1-.9s.1-.6.2-.9c.1-.3.3-.5.5-.7s.5-.3.8-.4.7-.1,1-.1c.4,0,.7,0,.9.1s.5.2.7.3c.2.1.3.3.4.4.1.2.1.3.1.5,0,.3-.1.4-.3.6-.2.1-.4.2-.7.2,0-.2,0-.4-.1-.5,0-.2-.1-.3-.2-.5-.1-.1-.2-.3-.4-.3-.2-.1-.4-.1-.6-.1s-.4,0-.6.1c-.2.1-.3.2-.5.3-.1.1-.2.3-.3.4-.1.2-.1.4-.1.6s0,.4.1.6.2.3.3.5.3.3.6.4c.2.1.5.3.9.4.3.1.7.3.9.5s.5.3.7.5.3.4.4.7c.1.2.2.5.2.8,0,.4-.1.7-.2,1-.1.3-.3.5-.6.8-.3.2-.6.4-.9.5-.1-.2-.5-.1-.9-.1Z"/>
    </g>
  </g>
</svg>